{
  "accessors": [
    {
      "bufferView": 2,
      "componentType": 5126,
      "count": 716,
      "max": [
        0.2651880085468292,
        1.0,
        0.5701050162315369
      ],
      "min": [
        -0.2651880085468292,
        -1.0,
        -0.5701050162315369
      ],
      "type": "VEC3"
    },
    {
      "bufferView": 2,
      "byteOffset": 8592,
      "componentType": 5126,
      "count": 716,
      "max": [
        1.0,
        1.0,
        1.0
      ],
      "min": [
        -1.0,
        -1.0,
        -1.0
      ],
      "type": "VEC3"
    },
    {
      "bufferView": 3,
      "componentType": 5126,
      "count": 716,
      "max": [
        0.9999978542327881,
        0.9996669888496399,
        0.9999971985816956,
        1.0
      ],
      "min": [
        -0.9999983906745911,
        -0.9996669888496399,
        -1.0,
        1.0
      ],
      "type": "VEC4"
    },
    {
      "bufferView": 1,
      "componentType": 5126,
      "count": 716,
      "max": [
        0.9962260127067566,
        0.9947519898414612
      ],
      "min": [
        0.002951999893411994,
        0.0023819999769330025
      ],
      "type": "VEC2"
    },
    {
      "bufferView": 0,
      "componentType": 5125,
      "count": 1788,
      "type": "SCALAR"
    },
    {
      "bufferView": 2,
      "byteOffset": 17184,
      "componentType": 5126,
      "count": 234,
      "max": [
        0.19964799284934998,
        0.9815250039100647,
        0.5260559916496277
      ],
      "min": [
        -0.22113899886608124,
        -0.9687079787254333,
        -0.5260559916496277
      ],
      "type": "VEC3"
    },
    {
      "bufferView": 2,
      "byteOffset": 19992,
      "componentType": 5126,
      "count": 234,
      "max": [
        1.0,
        1.0,
        1.0
      ],
      "min": [
        -1.0,
        -1.0,
        -1.0
      ],
      "type": "VEC3"
    },
    {
      "bufferView": 3,
      "byteOffset": 11456,
      "componentType": 5126,
      "count": 234,
      "max": [
        0.9999985694885254,
        0.8796582818031311,
        1.0,
        1.0
      ],
      "min": [
        -0.9999986886978149,
        -0.8796648979187012,
        -0.999997615814209,
        1.0
      ],
      "type": "VEC4"
    },
    {
      "bufferView": 1,
      "byteOffset": 5728,
      "componentType": 5126,
      "count": 234,
      "max": [
        0.7874580025672913,
        0.6504579782485962
      ],
      "min": [
        0.010785000398755074,
        0.0055610002018511295
      ],
      "type": "VEC2"
    },
    {
      "bufferView": 0,
      "byteOffset": 7152,
      "componentType": 5125,
      "count": 444,
      "type": "SCALAR"
    }
  ],
  "asset": {
    "extras": {
      "author": "carlosvasc670 (https://sketchfab.com/carlosvasc670)",
      "license": "CC-BY-4.0 (http://creativecommons.org/licenses/by/4.0/)",
      "source": "https://sketchfab.com/3d-models/sci-fi-medkit-139314307c144fb7989d713c60f7bd10",
      "title": "Sci-Fi Medkit"
    },
    "generator": "Sketchfab-12.67.0",
    "version": "2.0"
  },
  "bufferViews": [
    {
      "buffer": 0,
      "byteLength": 8928,
      "name": "floatBufferViews",
      "target": 34963
    },
    {
      "buffer": 0,
      "byteLength": 7600,
      "byteOffset": 8928,
      "byteStride": 8,
      "name": "floatBufferViews",
      "target": 34962
    },
    {
      "buffer": 0,
      "byteLength": 22800,
      "byteOffset": 16528,
      "byteStride": 12,
      "name": "floatBufferViews",
      "target": 34962
    },
    {
      "buffer": 0,
      "byteLength": 15200,
      "byteOffset": 39328,
      "byteStride": 16,
      "name": "floatBufferViews",
      "target": 34962
    }
  ],
  "buffers": [
    {
      "byteLength": 54528,
      "uri": "scene.bin"
    }
  ],
  "images": [
    {
      "uri": "textures/lambert3SG_baseColor.jpeg"
    },
    {
      "uri": "textures/lambert3SG_metallicRoughness.png"
    },
    {
      "uri": "textures/lambert3SG_normal.png"
    },
    {
      "uri": "textures/lambert2SG_baseColor.jpeg"
    },
    {
      "uri": "textures/lambert2SG_metallicRoughness.png"
    },
    {
      "uri": "textures/lambert2SG_normal.png"
    }
  ],
  "materials": [
    {
      "doubleSided": true,
      "name": "lambert3SG",
      "normalTexture": {
        "index": 2
      },
      "occlusionTexture": {
        "index": 1
      },
      "pbrMetallicRoughness": {
        "baseColorTexture": {
          "index": 0
        },
        "metallicRoughnessTexture": {
          "index": 1
        }
      }
    },
    {
      "doubleSided": true,
      "name": "lambert2SG",
      "normalTexture": {
        "index": 5
      },
      "occlusionTexture": {
        "index": 4
      },
      "pbrMetallicRoughness": {
        "baseColorTexture": {
          "index": 3
        },
        "metallicRoughnessTexture": {
          "index": 4
        }
      }
    }
  ],
  "meshes": [
    {
      "name": "defaultMaterial",
      "primitives": [
        {
          "attributes": {
            "NORMAL": 1,
            "POSITION": 0,
            "TANGENT": 2,
            "TEXCOORD_0": 3
          },
          "indices": 4,
          "material": 0,
          "mode": 4
        }
      ]
    },
    {
      "name": "defaultMaterial",
      "primitives": [
        {
          "attributes": {
            "NORMAL": 6,
            "POSITION": 5,
            "TANGENT": 7,
            "TEXCOORD_0": 8
          },
          "indices": 9,
          "material": 1,
          "mode": 4
        }
      ]
    }
  ],
  "nodes": [
    {
      "children": [
        1
      ],
      "matrix": [
        1.0,
        0.0,
        0.0,
        0.0,
        0.0,
        2.220446049250313e-16,
        -1.0,
        0.0,
        0.0,
        1.0,
        2.220446049250313e-16,
        0.0,
        0.0,
        0.0,
        0.0,
        1.0
      ],
      "name": "Sketchfab_model"
    },
    {
      "children": [
        2
      ],
      "matrix": [
        1.0,
        0.0,
        0.0,
        0.0,
        0.0,
        -4.371139006309477e-08,
        0.999999999999999,
        0.0,
        0.0,
        -0.999999999999999,
        -4.371139006309477e-08,
        0.0,
        0.0,
        0.0,
        0.0,
        1.0
      ],
      "name": "Collada visual scene group"
    },
    {
      "children": [
        3,
        4
      ],
      "name": "g"
    },
    {
      "mesh": 0,
      "name": "defaultMaterial"
    },
    {
      "mesh": 1,
      "name": "defaultMaterial"
    }
  ],
  "samplers": [
    {
      "magFilter": 9729,
      "minFilter": 9987,
      "wrapS": 10497,
      "wrapT": 10497
    }
  ],
  "scene": 0,
  "scenes": [
    {
      "name": "Sketchfab_Scene",
      "nodes": [
        0
      ]
    }
  ],
  "textures": [
    {
      "sampler": 0,
      "source": 0
    },
    {
      "sampler": 0,
      "source": 1
    },
    {
      "sampler": 0,
      "source": 2
    },
    {
      "sampler": 0,
      "source": 3
    },
    {
      "sampler": 0,
      "source": 4
    },
    {
      "sampler": 0,
      "source": 5
    }
  ]
}
